<svg xmlns="http://www.w3.org/2000/svg" width="181" height="231" fill="none" viewBox="0 0 181 231"><path fill="#9C9C9C" d="M10.8712 228.057C10.0956 228.349 9.70294 229.213 9.99409 229.989C10.2852 230.765 11.15 231.157 11.9256 230.866L10.8712 228.057ZM58.7269 137.151L57.3851 137.822L58.7269 137.151ZM3.79719 155.351L2.40981 155.921L3.79719 155.351ZM115.762 119.182L116.916 120.141L115.762 119.182ZM174.013 1.06715C173.638 0.328618 172.735 0.0341714 171.996 0.409487L159.961 6.52559C159.223 6.90091 158.928 7.80386 159.303 8.54239C159.679 9.28093 160.582 9.57537 161.32 9.20006L172.018 3.76352L177.455 14.4614C177.83 15.1999 178.733 15.4943 179.471 15.119C180.21 14.7437 180.504 13.8408 180.129 13.1022L174.013 1.06715ZM11.9256 230.866C13.48 230.283 14.9917 229.673 16.4617 229.04L15.2744 226.285C13.849 226.899 12.3816 227.49 10.8712 228.057L11.9256 230.866ZM25.2222 224.718C28.1671 223.063 30.9072 221.3 33.4545 219.445L31.6887 217.02C29.2378 218.804 26.5967 220.504 23.7527 222.102L25.2222 224.718ZM40.9871 213.195C43.4327 210.883 45.643 208.477 47.6363 206.005L45.3008 204.122C43.3912 206.491 41.2724 208.797 38.9261 211.015L40.9871 213.195ZM53.2556 197.963C54.9825 195.091 56.4643 192.171 57.7265 189.241L54.9712 188.054C53.7601 190.866 52.3393 193.665 50.6845 196.417L53.2556 197.963ZM61.008 180.01C61.9289 176.776 62.613 173.574 63.0957 170.454L60.131 169.995C59.6663 172.999 59.008 176.08 58.1227 179.189L61.008 180.01ZM63.9984 160.712C64.1066 157.226 63.9772 153.929 63.6701 150.905L60.6854 151.208C60.9791 154.1 61.104 157.265 60.9999 160.619L63.9984 160.712ZM61.8593 141.199C61.3309 139.388 60.7261 137.796 60.0687 136.481L57.3851 137.822C57.944 138.94 58.4884 140.356 58.9794 142.039L61.8593 141.199ZM60.0687 136.481C59.2175 134.777 58.0934 133.223 56.7589 131.822L54.5864 133.891C55.7373 135.099 56.6807 136.412 57.3851 137.822L60.0687 136.481ZM47.5597 125.597C44.3191 124.17 40.7388 123.15 37.049 122.551L36.5682 125.512C40.0357 126.075 43.3676 127.029 46.3501 128.343L47.5597 125.597ZM26.1585 122.008C22.4183 122.242 18.7526 122.921 15.3964 124.08L16.3756 126.916C19.4428 125.857 22.8379 125.222 26.3459 125.002L26.1585 122.008ZM5.76768 129.686C3.02055 132.279 1.03475 135.556 0.195875 139.528L3.13113 140.148C3.83404 136.819 5.48836 134.075 7.82727 131.867L5.76768 129.686ZM0.652572 150.667C1.07895 152.349 1.66148 154.1 2.40981 155.921L5.18458 154.78C4.48503 153.078 3.94896 151.462 3.56057 149.93L0.652572 150.667ZM2.40981 155.921C3.10316 157.608 3.83639 159.194 4.60797 160.684L7.27172 159.304C6.5433 157.898 5.84673 156.391 5.18458 154.78L2.40981 155.921ZM10.5438 169.476C13.0979 172.343 15.9045 174.536 18.9233 176.113L20.3121 173.454C17.6365 172.057 15.1134 170.095 12.7839 167.48L10.5438 169.476ZM29.2395 179.116C32.6639 179.44 36.2126 179.2 39.8331 178.496L39.2605 175.552C35.8729 176.21 32.6153 176.422 29.522 176.129L29.2395 179.116ZM49.885 175.484C52.9942 174.252 56.1364 172.751 59.2859 171.03L57.8474 168.398C54.7891 170.069 51.7585 171.515 48.78 172.695L49.885 175.484ZM68.1409 165.651C70.9543 163.778 73.7594 161.762 76.5382 159.636L74.7151 157.253C71.9829 159.344 69.2315 161.321 66.4786 163.154L68.1409 165.651ZM84.5522 153.152C87.1577 150.932 89.7246 148.638 92.237 146.299L90.1929 144.103C87.7102 146.415 85.1761 148.679 82.6065 150.868L84.5522 153.152ZM99.6287 139.142C102.081 136.676 104.46 134.192 106.748 131.72L104.546 129.682C102.281 132.129 99.9273 134.587 97.5013 137.027L99.6287 139.142ZM113.597 124.058C114.737 122.738 115.844 121.43 116.916 120.141L114.609 118.223C113.549 119.498 112.454 120.791 111.326 122.098L113.597 124.058ZM116.916 120.141C117.901 118.956 118.884 117.723 119.863 116.444L117.482 114.62C116.525 115.869 115.567 117.071 114.609 118.223L116.916 120.141ZM125.367 108.757C127.077 106.216 128.773 103.557 130.45 100.804L127.889 99.2434C126.232 101.962 124.56 104.582 122.878 107.082L125.367 108.757ZM135.203 92.6753C136.72 89.9775 138.218 87.2168 139.693 84.4115L137.037 83.0158C135.575 85.7981 134.09 88.5338 132.588 91.2049L135.203 92.6753ZM143.964 76.0387C145.352 73.2385 146.714 70.4126 148.048 67.5778L145.334 66.3006C144.008 69.1182 142.654 71.9257 141.276 74.7063L143.964 76.0387ZM151.969 59.0431C153.261 56.1631 154.52 53.2909 155.741 50.4442L152.984 49.261C151.769 52.0935 150.517 54.9507 149.231 57.8151L151.969 59.0431ZM159.378 41.7881C160.595 38.8294 161.766 35.9199 162.886 33.081L160.095 31.9802C158.981 34.8061 157.815 37.702 156.604 40.6468L159.378 41.7881ZM166.263 24.3347C167.425 21.2601 168.512 18.3088 169.519 15.5136L166.697 14.497C165.695 17.2776 164.613 20.2143 163.457 23.2745L166.263 24.3347ZM172.624 6.64894C173.155 5.08528 173.648 3.6032 174.102 2.21176L171.25 1.28168C170.8 2.66094 170.31 4.13159 169.783 5.68462L172.624 6.64894Z"/></svg>