<svg xmlns="http://www.w3.org/2000/svg" width="20" height="21" fill="none" viewBox="0 0 20 21"><path fill="#A1A1A1" d="M17 6C16.1667 6 15.4583 5.70833 14.875 5.125C14.2917 4.54167 14 3.83333 14 3C14 2.16667 14.2917 1.45833 14.875 0.875C15.4583 0.291667 16.1667 0 17 0C17.8333 0 18.5417 0.291667 19.125 0.875C19.7083 1.45833 20 2.16667 20 3C20 3.83333 19.7083 4.54167 19.125 5.125C18.5417 5.70833 17.8333 6 17 6ZM4 18L1.7 20.3C1.38333 20.6167 1.02067 20.6873 0.612 20.512C0.204 20.3373 0 20.025 0 19.575V4C0 3.45 0.196 2.979 0.588 2.587C0.979333 2.19567 1.45 2 2 2H12.1C12.0333 2.33333 12 2.66667 12 3C12 3.33333 12.0333 3.66667 12.1 4C12.3333 5.15 12.9083 6.104 13.825 6.862C14.7417 7.62067 15.8 8 17 8C17.5333 8 18.0583 7.91667 18.575 7.75C19.0917 7.58333 19.5667 7.33333 20 7V16C20 16.55 19.8043 17.021 19.413 17.413C19.021 17.8043 18.55 18 18 18H4Z"/></svg>