<svg width="22" height="22" viewBox="0 0 22 22" fill="none" xmlns="http://www.w3.org/2000/svg">
<path d="M11 21C16.523 21 21 16.523 21 11C21 5.477 16.523 1 11 1C5.477 1 1 5.477 1 11C1 16.523 5.477 21 11 21Z" stroke="#699BF7" stroke-width="2" stroke-linecap="round" stroke-linejoin="round"/>
<path d="M14.0465 2.25L11.0345 4.4295V6.609L14.907 9.66L17.058 8.7885L18.3485 5.3015M8.02296 2.25L11.0345 4.4295V6.609L7.16246 9.66L5.01146 8.7885L3.72046 5.3015" stroke="#699BF7" stroke-width="2" stroke-linecap="round" stroke-linejoin="round"/>
<path d="M2 10.096L5.0115 8.78851L7.163 9.66001L8.4535 14.455L7.163 16.1985H3.29" stroke="#699BF7" stroke-width="2" stroke-linecap="round" stroke-linejoin="round"/>
<path d="M7.16248 19.25V16.1985L8.45347 14.455H13.616L14.907 16.1985V19.25" stroke="#699BF7" stroke-width="2" stroke-linecap="round" stroke-linejoin="round"/>
<path d="M18.779 16.1985H14.907L13.616 14.455L14.907 9.66001L17.058 8.78851L20.5 10.532" stroke="#699BF7" stroke-width="2" stroke-linecap="round" stroke-linejoin="round"/>
</svg>
