<svg xmlns="http://www.w3.org/2000/svg" width="23" height="22" fill="none" viewBox="0 0 23 22"><path stroke="#949494" stroke-linecap="round" stroke-linejoin="round" stroke-width="2" d="M11.9378 21C17.4608 21 21.9378 16.523 21.9378 11C21.9378 5.477 17.4608 1 11.9378 1C6.41484 1 1.93784 5.477 1.93784 11C1.93784 16.523 6.41484 21 11.9378 21Z"/><path stroke="#949494" stroke-linecap="round" stroke-linejoin="round" stroke-width="2" d="M14.9843 2.25L11.9723 4.4295V6.609L15.8448 9.66L17.9958 8.7885L19.2863 5.3015M8.96082 2.25L11.9723 4.4295V6.609L8.10033 9.66L5.94933 8.7885L4.65833 5.3015"/><path stroke="#949494" stroke-linecap="round" stroke-linejoin="round" stroke-width="2" d="M2.93784 10.096L5.94934 8.78851L8.10084 9.66001L9.39134 14.455L8.10084 16.1985H4.22784"/><path stroke="#949494" stroke-linecap="round" stroke-linejoin="round" stroke-width="2" d="M8.10034 19.25V16.1985L9.39134 14.455H14.5538L15.8448 16.1985V19.25"/><path stroke="#949494" stroke-linecap="round" stroke-linejoin="round" stroke-width="2" d="M19.7168 16.1985H15.8448L14.5538 14.455L15.8448 9.66001L17.9958 8.78851L21.4378 10.532"/></svg>