<svg xmlns="http://www.w3.org/2000/svg" width="20" height="20" fill="none" viewBox="0 0 20 20"><path fill="#A1A1A1" d="M3.16145 20C2.53288 20 1.99497 19.7764 1.54773 19.3291C1.09973 18.8811 0.875732 18.3429 0.875732 17.7143V7.42857C0.875732 7.06667 0.956875 6.72381 1.11916 6.4C1.28068 6.07619 1.5043 5.80952 1.79002 5.6L8.64716 0.457143C8.85669 0.304762 9.07573 0.190476 9.3043 0.114286C9.53288 0.0380951 9.77097 0 10.0186 0C10.2662 0 10.5043 0.0380951 10.7329 0.114286C10.9614 0.190476 11.1805 0.304762 11.39 0.457143L18.2472 5.6C18.5329 5.80952 18.7569 6.07619 18.9192 6.4C19.0807 6.72381 19.1614 7.06667 19.1614 7.42857V17.7143C19.1614 18.3429 18.9378 18.8811 18.4906 19.3291C18.0426 19.7764 17.5043 20 16.8757 20H12.3043V12H7.73288V20H3.16145Z"/></svg>