<svg width="20" height="20" viewBox="0 0 20 20" fill="none" xmlns="http://www.w3.org/2000/svg">
<path d="M3.16139 20C2.53281 20 1.99491 19.7764 1.54767 19.3291C1.09967 18.8811 0.875671 18.3429 0.875671 17.7143V7.42857C0.875671 7.06667 0.956814 6.72381 1.1191 6.4C1.28062 6.07619 1.50424 5.80952 1.78996 5.6L8.6471 0.457143C8.85662 0.304762 9.07567 0.190476 9.30424 0.114286C9.53281 0.0380951 9.77091 0 10.0185 0C10.2661 0 10.5042 0.0380951 10.7328 0.114286C10.9614 0.190476 11.1804 0.304762 11.39 0.457143L18.2471 5.6C18.5328 5.80952 18.7568 6.07619 18.9191 6.4C19.0806 6.72381 19.1614 7.06667 19.1614 7.42857V17.7143C19.1614 18.3429 18.9378 18.8811 18.4905 19.3291C18.0425 19.7764 17.5042 20 16.8757 20H12.3042V12H7.73281V20H3.16139Z" fill="#699BF7"/>
</svg>
